<?xml version="1.0" encoding="UTF-8" standalone="no"?>
<svg
   xmlns:dc="http://purl.org/dc/elements/1.1/"
   xmlns:cc="http://creativecommons.org/ns#"
   xmlns:rdf="http://www.w3.org/1999/02/22-rdf-syntax-ns#"
   xmlns:svg="http://www.w3.org/2000/svg"
   xmlns="http://www.w3.org/2000/svg"
   xmlns:sodipodi="http://sodipodi.sourceforge.net/DTD/sodipodi-0.dtd"
   xmlns:inkscape="http://www.inkscape.org/namespaces/inkscape"
   sodipodi:docname="viruslocal.svg"
   inkscape:version="1.0 (4035a4fb49, 2020-05-01)"
   id="svg8"
   version="1.1"
   viewBox="0 0 70.823441 84.717041"
   height="84.717041mm"
   width="70.823441mm">
  <defs
     id="defs2" />
  <sodipodi:namedview
     fit-margin-bottom="0"
     fit-margin-right="0"
     fit-margin-left="0"
     fit-margin-top="0"
     inkscape:snap-nodes="false"
     inkscape:snap-smooth-nodes="true"
     inkscape:window-maximized="1"
     inkscape:window-y="46"
     inkscape:window-x="0"
     inkscape:window-height="1034"
     inkscape:window-width="1920"
     inkscape:guide-bbox="true"
     showguides="true"
     inkscape:object-paths="true"
     inkscape:bbox-nodes="true"
     inkscape:snap-bbox="true"
     inkscape:snap-object-midpoints="true"
     inkscape:snap-center="true"
     showgrid="false"
     inkscape:document-rotation="0"
     inkscape:current-layer="layer1"
     inkscape:document-units="mm"
     inkscape:cy="41.405516"
     inkscape:cx="-168.27836"
     inkscape:zoom="1.2058492"
     inkscape:pageshadow="2"
     inkscape:pageopacity="0.0"
     borderopacity="1.0"
     bordercolor="#666666"
     pagecolor="#ffffff"
     id="base">
    <inkscape:grid
       originy="-92.5538"
       originx="-28.088281"
       id="grid841"
       type="xygrid" />
  </sodipodi:namedview>
  <metadata
     id="metadata5">
    <rdf:RDF>
      <cc:Work
         rdf:about="">
        <dc:format>image/svg+xml</dc:format>
        <dc:type
           rdf:resource="http://purl.org/dc/dcmitype/StillImage" />
        <dc:title />
      </cc:Work>
    </rdf:RDF>
  </metadata>
  <g
     transform="translate(-28.08828,-92.553802)"
     id="layer1"
     inkscape:groupmode="layer"
     inkscape:label="Layer 1">
    <g
       style="fill:#4200ad;fill-opacity:1"
       id="g868">
      <path
         inkscape:transform-center-x="16.724831"
         id="path932"
         style="fill:#4200ad;fill-opacity:1;stroke:none;stroke-width:0.264583;stop-color:#000000"
         d="m 33.487129,109.34731 c 0.09413,0.80808 1.046741,1.48675 1.923224,1.50258 4.975132,0.0899 16.172906,11.08708 16.172906,11.08708 l 11.082889,5.56173 -8.077713,-9.40818 c 0,0 -13.379461,-8.2047 -14.67032,-13.01029 -0.227414,-0.84662 -1.116383,-1.60674 -1.923223,-1.50259 -1.210354,0.15624 -1.466716,1.95113 -2.218068,2.91281 -0.751352,0.96169 -2.430902,1.64466 -2.289695,2.85686 z"
         sodipodi:nodetypes="ascccsaaa"
         inkscape:transform-center-y="-13.677727" />
      <path
         id="rect886"
         style="fill:#4200ad;fill-opacity:1;stroke:none;stroke-width:0.264583;stop-color:#000000"
         d="m 59.83909,92.923511 c -0.578816,0.571674 -0.527131,1.740173 0,2.440606 2.992127,3.975829 1.220304,19.570303 1.220304,19.570303 L 63.5,127.092 65.940606,114.93442 c 0,0 -1.771823,-15.594474 1.220304,-19.570303 0.527131,-0.700433 0.578816,-1.868932 0,-2.440606 -0.868291,-0.857578 -2.440512,0.04545 -3.66091,0.04545 -1.220397,0 -2.792619,-0.903026 -3.66091,-0.04545 z"
         sodipodi:nodetypes="ascccsaaa"
         inkscape:transform-center-y="-19.868386" />
      <path
         inkscape:transform-center-y="-18.582023"
         sodipodi:nodetypes="ascccsaaa"
         d="m 75.651949,94.883822 c -0.770842,0.260081 -1.236624,1.332978 -1.069891,2.193601 0.946417,4.885117 -7.482256,18.124627 -7.482256,18.124627 l -3.135929,11.99705 7.523134,-9.85727 c 0,0 5.243664,-14.79295 9.675858,-17.05473 0.780832,-0.398467 1.339523,-1.42605 1.069892,-2.193604 -0.404477,-1.15142 -2.213441,-1.029001 -3.310327,-1.563988 -1.096886,-0.534988 -2.114129,-2.035839 -3.270481,-1.645686 z"
         style="fill:#4200ad;fill-opacity:1;stroke:none;stroke-width:0.264583;stop-color:#000000"
         id="path920"
         inkscape:transform-center-x="-10.442664" />
      <path
         inkscape:transform-center-x="-16.724831"
         id="path922"
         style="fill:#4200ad;fill-opacity:1;stroke:none;stroke-width:0.264583;stop-color:#000000"
         d="m 89.005108,103.57764 c -0.80684,-0.10415 -1.695809,0.65597 -1.923223,1.50259 -1.290859,4.80559 -14.67032,13.01029 -14.67032,13.01029 l -8.077713,9.40818 11.082889,-5.56173 c 0,0 11.197774,-10.99714 16.172906,-11.08708 0.876483,-0.0159 1.829093,-0.6945 1.923224,-1.50258 0.141207,-1.2122 -1.538343,-1.89517 -2.289695,-2.85686 -0.751352,-0.96168 -1.007714,-2.75657 -2.218068,-2.91281 z"
         sodipodi:nodetypes="ascccsaaa"
         inkscape:transform-center-y="-13.677727" />
      <path
         inkscape:transform-center-y="-6.1463313"
         sodipodi:nodetypes="ascccsaaa"
         d="m 97.195727,117.24523 c -0.679523,-0.44731 -1.811738,-0.15382 -2.387271,0.50743 -3.266849,3.75337 -18.888933,5.26253 -18.888933,5.26253 l -11.384475,4.91498 12.399338,-0.14043 c 0,0 14.88532,-4.97538 19.396365,-2.87526 0.794733,0.36997 1.94843,0.1776 2.387269,-0.50743 0.658313,-1.02762 -0.551865,-2.37774 -0.805599,-3.57147 -0.253733,-1.19372 0.302679,-2.91933 -0.716694,-3.59035 z"
         style="fill:#4200ad;fill-opacity:1;stroke:none;stroke-width:0.264583;stop-color:#000000"
         id="path924"
         inkscape:transform-center-x="-19.75576" />
      <path
         inkscape:transform-center-x="-19.656327"
         id="path926"
         style="fill:#4200ad;fill-opacity:1;stroke:none;stroke-width:0.264583;stop-color:#000000"
         d="m 98.565929,133.12011 c -0.414662,-0.69992 -1.560949,-0.93246 -2.368106,-0.59044 -4.581591,1.94141 -19.284202,-3.55042 -19.284202,-3.55042 l -12.386883,-0.57308 11.206013,5.30929 c 0,0 15.559898,2.05346 18.69377,5.91854 0.552117,0.68092 1.67338,1.01377 2.368101,0.59044 1.042169,-0.63504 0.546324,-2.37902 0.841567,-3.56317 0.295235,-1.18413 1.551792,-2.49119 0.92974,-3.54116 z"
         sodipodi:nodetypes="ascccsaaa"
         inkscape:transform-center-y="6.7853967" />
      <path
         inkscape:transform-center-y="14.165199"
         sodipodi:nodetypes="ascccsaaa"
         d="m 92.838373,147.98901 c -0.06587,-0.81085 -0.994208,-1.52236 -1.869611,-1.56878 -4.968965,-0.26351 -15.77612,-11.64475 -15.77612,-11.64475 l -10.882038,-5.94512 7.744457,9.68435 c 0,0 13.084968,8.66665 14.207333,13.51435 0.197746,0.85404 1.059619,1.64473 1.869604,1.56879 1.215077,-0.11391 1.533926,-1.89875 2.318385,-2.83363 0.784446,-0.93487 2.486811,-1.55881 2.38799,-2.77521 z"
         style="fill:#4200ad;fill-opacity:1;stroke:none;stroke-width:0.264583;stop-color:#000000"
         id="path928"
         inkscape:transform-center-x="-16.344314" />
      <path
         inkscape:transform-center-y="-18.582023"
         sodipodi:nodetypes="ascccsaaa"
         d="m 44.767243,98.093496 c -0.269631,0.767554 0.28906,1.795137 1.069892,2.193604 4.432194,2.26178 9.675858,17.05473 9.675858,17.05473 l 7.523134,9.85727 -3.135929,-11.99705 c 0,0 -8.428673,-13.23951 -7.482255,-18.124627 0.166732,-0.860623 -0.29905,-1.93352 -1.069892,-2.193601 -1.156352,-0.390153 -2.173594,1.110698 -3.270481,1.645686 -1.096885,0.534987 -2.905849,0.412568 -3.310327,1.563988 z"
         style="fill:#4200ad;fill-opacity:1;stroke:none;stroke-width:0.264583;stop-color:#000000"
         id="path930"
         inkscape:transform-center-x="10.442664" />
      <path
         inkscape:transform-center-y="-6.1463313"
         sodipodi:nodetypes="ascccsaaa"
         d="m 28.281979,124.40705 c 0.438839,0.68503 1.59255,0.87741 2.387271,0.50743 4.511045,-2.10012 19.396364,2.87526 19.396364,2.87526 l 12.399339,0.14043 -11.384476,-4.91498 c 0,0 -15.622083,-1.50916 -18.888933,-5.26253 -0.575532,-0.66125 -1.707748,-0.95474 -2.387274,-0.50743 -1.019367,0.67102 -0.462955,2.39663 -0.716692,3.59035 -0.253736,1.19373 -1.463911,2.54385 -0.805599,3.57147 z"
         style="fill:#4200ad;fill-opacity:1;stroke:none;stroke-width:0.264583;stop-color:#000000"
         id="path934"
         inkscape:transform-center-x="19.75576" />
      <path
         inkscape:transform-center-x="19.656328"
         id="path936"
         style="fill:#4200ad;fill-opacity:1;stroke:none;stroke-width:0.264583;stop-color:#000000"
         d="m 30.205377,140.22444 c 0.694722,0.42333 1.816006,0.0905 2.368103,-0.59044 3.133871,-3.86508 18.69377,-5.91854 18.69377,-5.91854 l 11.206012,-5.30929 -12.386883,0.57308 c 0,0 -14.70261,5.49183 -19.284202,3.55042 -0.807157,-0.34202 -1.953443,-0.10948 -2.36811,0.59045 -0.622048,1.04996 0.634512,2.35702 0.929748,3.54115 0.29524,1.18415 -0.200608,2.92813 0.841562,3.56317 z"
         sodipodi:nodetypes="ascccsaaa"
         inkscape:transform-center-y="6.7853987" />
      <path
         inkscape:transform-center-y="14.165198"
         sodipodi:nodetypes="ascccsaaa"
         d="m 38.868003,153.59785 c 0.809984,0.0759 1.671883,-0.71474 1.869604,-1.56879 1.122365,-4.8477 14.207332,-13.51435 14.207332,-13.51435 l 7.744458,-9.68435 -10.882038,5.94512 c 0,0 -10.807156,11.38124 -15.776121,11.64475 -0.875403,0.0464 -1.803737,0.75793 -1.869611,1.56879 -0.09882,1.21639 1.603546,1.84032 2.387994,2.7752 0.784456,0.93488 1.103302,2.71972 2.318382,2.83363 z"
         style="fill:#4200ad;fill-opacity:1;stroke:none;stroke-width:0.264583;stop-color:#000000"
         id="path938"
         inkscape:transform-center-x="16.344314" />
      <path
         id="circle845"
         style="fill:#4200ad;fill-opacity:1;stroke:none;stroke-width:0.264583;stop-color:#000000"
         d="M 88.73964,134.9375 C 84.666667,148.16667 71.4375,156.10417 63.5,177.27084 55.5625,156.10417 42.333333,148.16667 38.26036,134.9375"
         sodipodi:nodetypes="ccc" />
      <circle
         style="fill:#4200ad;fill-opacity:1;stroke:none;stroke-width:0.264583;stop-color:#000000"
         id="path833"
         cx="63.5"
         cy="127"
         r="26.458332" />
    </g>
    <circle
       style="fill:#ffffff;fill-opacity:1;stroke:none;stroke-width:0.264583;stop-color:#000000"
       id="circle843"
       cx="63.5"
       cy="127"
       r="10.583333" />
  </g>
</svg>
